<?xml version="1.0" encoding="UTF-8" standalone="no"?>
<!-- Created with Inkscape (http://www.inkscape.org/) -->
<svg
   xmlns:dc="http://purl.org/dc/elements/1.1/"
   xmlns:cc="http://creativecommons.org/ns#"
   xmlns:rdf="http://www.w3.org/1999/02/22-rdf-syntax-ns#"
   xmlns:svg="http://www.w3.org/2000/svg"
   xmlns="http://www.w3.org/2000/svg"
   xmlns:sodipodi="http://sodipodi.sourceforge.net/DTD/sodipodi-0.dtd"
   xmlns:inkscape="http://www.inkscape.org/namespaces/inkscape"
   width="600"
   height="300"
   id="svg2"
   sodipodi:version="0.32"
   inkscape:version="0.46"
   sodipodi:docname="mogo.svg"
   inkscape:output_extension="org.inkscape.output.svg.inkscape"
   version="1.0">
  <defs
     id="defs4">
    <inkscape:perspective
       sodipodi:type="inkscape:persp3d"
       inkscape:vp_x="0 : 526.18109 : 1"
       inkscape:vp_y="0 : 1000 : 0"
       inkscape:vp_z="744.09448 : 526.18109 : 1"
       inkscape:persp3d-origin="372.04724 : 350.78739 : 1"
       id="perspective10" />
    <filter
       inkscape:collect="always"
       id="filter3349">
      <feGaussianBlur
         inkscape:collect="always"
         stdDeviation="6.1146763"
         id="feGaussianBlur3351" />
    </filter>
  </defs>
  <sodipodi:namedview
     id="base"
     pagecolor="#ffffff"
     bordercolor="#666666"
     borderopacity="1.0"
     gridtolerance="10000"
     guidetolerance="10"
     objecttolerance="10"
     inkscape:pageopacity="0.0"
     inkscape:pageshadow="2"
     inkscape:zoom="0.98994949"
     inkscape:cx="440.68628"
     inkscape:cy="210.61637"
     inkscape:document-units="px"
     inkscape:current-layer="layer1"
     showgrid="false"
     inkscape:window-width="1211"
     inkscape:window-height="713"
     inkscape:window-x="0"
     inkscape:window-y="0" />
  <metadata
     id="metadata7">
    <rdf:RDF>
      <cc:Work
         rdf:about="">
        <dc:format>image/svg+xml</dc:format>
        <dc:type
           rdf:resource="http://purl.org/dc/dcmitype/StillImage" />
      </cc:Work>
    </rdf:RDF>
  </metadata>
  <g
     inkscape:label="Layer 1"
     inkscape:groupmode="layer"
     id="layer1">
    <g
       id="g2394"
       transform="matrix(0.7995608,0,0,0.7995608,55.927911,40.356451)">
      <path
         id="rect2385"
         d="M 39.401786,70.308036 C 35.396356,70.308036 32.183036,73.521366 32.183036,77.526786 L 32.183036,98.964286 C 32.183036,102.96972 35.396356,106.21427 39.401786,106.21429 L 60.870536,106.21429 C 64.875966,106.21429 68.089296,102.96973 68.089286,98.964286 L 68.089286,77.526786 C 68.089286,73.521356 64.875966,70.308036 60.870536,70.308036 L 39.401786,70.308036 z M 77.464286,70.308036 C 73.458856,70.308036 70.245536,73.521366 70.245536,77.526786 L 70.245536,98.964286 C 70.245536,102.96972 73.458866,106.21427 77.464286,106.21429 L 145.37054,106.21429 C 149.37597,106.21429 152.62055,102.96973 152.62054,98.964286 L 152.62054,77.526786 C 152.62054,73.521356 149.37597,70.308036 145.37054,70.308036 L 77.464286,70.308036 z M 161.96429,70.308036 C 157.95886,70.308036 154.74554,73.521366 154.74554,77.526786 L 154.74554,98.964286 C 154.74554,102.96972 157.95887,106.21427 161.96429,106.21429 L 183.43304,106.21429 C 187.43847,106.21429 190.65181,102.96973 190.65179,98.964286 L 190.65179,77.526786 C 190.65179,73.521356 187.43848,70.308036 183.43304,70.308036 L 161.96429,70.308036 z M 213.55804,70.308036 C 209.55261,70.308036 206.33929,73.521366 206.33929,77.526786 L 206.33929,98.964286 C 206.33929,102.96972 209.55262,106.21427 213.55804,106.21429 L 234.99554,106.21429 C 239.00097,106.21429 242.24556,102.96973 242.24554,98.964286 L 242.24554,77.526786 C 242.24554,73.521356 239.00098,70.308036 234.99554,70.308036 L 213.55804,70.308036 z M 251.18304,70.308036 C 247.17761,70.308036 243.96429,73.521366 243.96429,77.526786 L 243.96429,98.964286 C 243.96429,102.96972 247.17762,106.21427 251.18304,106.21429 L 272.65179,106.21429 C 276.65722,106.21429 279.87052,102.96973 279.87054,98.964286 L 279.87054,77.526786 C 279.87054,73.521356 276.65723,70.308036 272.65179,70.308036 L 251.18304,70.308036 z M 288.83929,70.308036 C 284.83386,70.308036 281.58929,73.521366 281.58929,77.526786 L 281.58929,98.964286 C 281.58929,102.96972 284.83387,106.21427 288.83929,106.21429 L 310.27679,106.21429 C 314.28222,106.21429 317.52681,102.96973 317.52679,98.964286 L 317.52679,77.526786 C 317.52679,73.521356 314.28223,70.308036 310.27679,70.308036 L 288.83929,70.308036 z M 340.40179,70.308036 C 336.39636,70.308036 333.18304,73.521366 333.18304,77.526786 L 333.18304,98.964286 C 333.18304,102.96972 336.39637,106.21427 340.40179,106.21429 L 361.87054,106.21429 C 365.87597,106.21429 369.08927,102.96973 369.08929,98.964286 L 369.08929,77.526786 C 369.08929,73.521356 365.87598,70.308036 361.87054,70.308036 L 340.40179,70.308036 z M 378.05804,70.308036 C 374.05261,70.308036 370.80804,73.521366 370.80804,77.526786 L 370.80804,98.964286 C 370.80804,102.96972 374.05262,106.21427 378.05804,106.21429 L 399.49554,106.21429 C 403.50097,106.21429 406.74556,102.96973 406.74554,98.964286 L 406.74554,77.526786 C 406.74554,73.521356 403.50098,70.308036 399.49554,70.308036 L 378.05804,70.308036 z M 415.68304,70.308036 C 411.67761,70.308036 408.46429,73.521366 408.46429,77.526786 L 408.46429,98.964286 C 408.46429,102.96972 411.67762,106.21427 415.68304,106.21429 L 437.15179,106.21429 C 441.15722,106.21429 444.37056,102.96973 444.37054,98.964286 L 444.37054,77.526786 C 444.37054,73.521356 441.15723,70.308036 437.15179,70.308036 L 415.68304,70.308036 z M 467.27679,70.308036 C 463.27136,70.308036 460.02679,73.521366 460.02679,77.526786 L 460.02679,98.964286 C 460.02679,102.96972 463.27134,106.21427 467.27679,106.21429 L 488.71429,106.21429 C 492.71972,106.21429 495.96431,102.96973 495.96429,98.964286 L 495.96429,77.526786 C 495.96429,73.521356 492.7197,70.308036 488.71429,70.308036 L 467.27679,70.308036 z M 504.90179,70.308036 C 500.89636,70.308036 497.68304,73.521366 497.68304,77.526786 L 497.68304,98.964286 C 497.68304,102.96972 500.89634,106.21427 504.90179,106.21429 L 526.37054,106.21429 C 530.37597,106.21429 533.58931,102.96973 533.58929,98.964286 L 533.58929,77.526786 C 533.58929,73.521356 530.37595,70.308036 526.37054,70.308036 L 504.90179,70.308036 z M 542.55804,70.308036 C 538.55261,70.308036 535.30804,73.521366 535.30804,77.526786 L 535.30804,98.964286 C 535.30804,102.96972 538.55259,106.21427 542.55804,106.21429 L 563.99554,106.21429 C 568.00097,106.21429 571.21431,102.96973 571.21429,98.964286 L 571.21429,77.526786 C 571.21429,73.521356 568.00095,70.308036 563.99554,70.308036 L 542.55804,70.308036 z M 39.401786,107.93304 C 35.396356,107.93304 32.183036,111.14637 32.183036,115.15179 L 32.183036,136.62054 C 32.183036,140.62597 35.396356,143.83927 39.401786,143.83929 L 60.870536,143.83929 C 64.875966,143.83929 68.089296,140.62598 68.089286,136.62054 L 68.089286,115.15179 C 68.089286,111.14636 64.875966,107.93304 60.870536,107.93304 L 39.401786,107.93304 z M 100.68304,107.93304 C 96.677606,107.93304 93.464286,111.14637 93.464286,115.15179 L 93.464286,136.62054 C 93.464286,140.62597 96.677616,143.83927 100.68304,143.83929 L 122.15179,143.83929 C 126.15722,143.83929 129.37054,140.62598 129.37054,136.62054 L 129.37054,115.15179 C 129.37054,111.14636 126.15721,107.93304 122.15179,107.93304 L 100.68304,107.93304 z M 161.96429,107.93304 C 157.95886,107.93304 154.74554,111.14637 154.74554,115.15179 L 154.74554,136.62054 C 154.74554,140.62597 157.95887,143.83927 161.96429,143.83929 L 183.43304,143.83929 C 187.43847,143.83929 190.65181,140.62598 190.65179,136.62054 L 190.65179,115.15179 C 190.65179,111.14636 187.43848,107.93304 183.43304,107.93304 L 161.96429,107.93304 z M 213.55804,107.93304 C 209.55261,107.93304 206.33929,111.14637 206.33929,115.15179 L 206.33929,136.62054 C 206.33929,140.62597 209.55262,143.83927 213.55804,143.83929 L 234.99554,143.83929 C 239.00097,143.83929 242.24556,140.62598 242.24554,136.62054 L 242.24554,115.15179 C 242.24554,111.14636 239.00098,107.93304 234.99554,107.93304 L 213.55804,107.93304 z M 288.83929,107.93304 C 284.83386,107.93304 281.58929,111.14637 281.58929,115.15179 L 281.58929,136.62054 C 281.58929,140.62597 284.83387,143.83927 288.83929,143.83929 L 310.27679,143.83929 C 314.28222,143.83929 317.52681,140.62598 317.52679,136.62054 L 317.52679,115.15179 C 317.52679,111.14636 314.28223,107.93304 310.27679,107.93304 L 288.83929,107.93304 z M 340.40179,107.93304 C 336.39636,107.93304 333.18304,111.14637 333.18304,115.15179 L 333.18304,136.62054 C 333.18304,140.62597 336.39637,143.83927 340.40179,143.83929 L 361.87054,143.83929 C 365.87597,143.83929 369.08927,140.62598 369.08929,136.62054 L 369.08929,115.15179 C 369.08929,111.14636 365.87598,107.93304 361.87054,107.93304 L 340.40179,107.93304 z M 415.68304,107.93304 C 411.67761,107.93304 408.46429,111.14637 408.46429,115.15179 L 408.46429,136.62054 C 408.46429,140.62597 411.67762,143.83927 415.68304,143.83929 L 437.15179,143.83929 C 441.15722,143.83929 444.37056,140.62598 444.37054,136.62054 L 444.37054,115.15179 C 444.37054,111.14636 441.15723,107.93304 437.15179,107.93304 L 415.68304,107.93304 z M 467.27679,107.93304 C 463.27136,107.93304 460.02679,111.14637 460.02679,115.15179 L 460.02679,136.62054 C 460.02679,140.62597 463.27134,143.83927 467.27679,143.83929 L 488.71429,143.83929 C 492.71972,143.83929 495.96431,140.62598 495.96429,136.62054 L 495.96429,115.15179 C 495.96429,111.14636 492.7197,107.93304 488.71429,107.93304 L 467.27679,107.93304 z M 542.55804,107.93304 C 538.55261,107.93304 535.30804,111.14637 535.30804,115.15179 L 535.30804,136.62054 C 535.30804,140.62597 538.55259,143.83927 542.55804,143.83929 L 563.99554,143.83929 C 568.00097,143.83929 571.21431,140.62598 571.21429,136.62054 L 571.21429,115.15179 C 571.21429,111.14636 568.00095,107.93304 563.99554,107.93304 L 542.55804,107.93304 z M 39.401786,145.58929 C 35.396356,145.58929 32.183036,148.80259 32.183036,152.80804 L 32.183036,174.24554 C 32.183036,178.25097 35.396356,181.49556 39.401786,181.49554 L 60.870536,181.49554 C 64.875966,181.49554 68.089296,178.25095 68.089286,174.24554 L 68.089286,152.80804 C 68.089286,148.80261 64.875966,145.58929 60.870536,145.58929 L 39.401786,145.58929 z M 100.68304,145.58929 C 96.677606,145.58929 93.464286,148.80259 93.464286,152.80804 L 93.464286,174.24554 C 93.464286,178.25097 96.677616,181.49556 100.68304,181.49554 L 122.15179,181.49554 C 126.15722,181.49554 129.37054,178.25095 129.37054,174.24554 L 129.37054,152.80804 C 129.37054,148.80261 126.15721,145.58929 122.15179,145.58929 L 100.68304,145.58929 z M 161.96429,145.58929 C 157.95886,145.58929 154.74554,148.80259 154.74554,152.80804 L 154.74554,174.24554 C 154.74554,178.25097 157.95887,181.49556 161.96429,181.49554 L 183.43304,181.49554 C 187.43847,181.49554 190.65181,178.25095 190.65179,174.24554 L 190.65179,152.80804 C 190.65179,148.80261 187.43848,145.58929 183.43304,145.58929 L 161.96429,145.58929 z M 213.55804,145.58929 C 209.55261,145.58929 206.33929,148.80259 206.33929,152.80804 L 206.33929,174.24554 C 206.33929,178.25097 209.55262,181.49556 213.55804,181.49554 L 234.99554,181.49554 C 239.00097,181.49554 242.24556,178.25095 242.24554,174.24554 L 242.24554,152.80804 C 242.24554,148.80261 239.00098,145.58929 234.99554,145.58929 L 213.55804,145.58929 z M 251.18304,145.58929 C 247.17761,145.58929 243.96429,148.80259 243.96429,152.80804 L 243.96429,174.24554 C 243.96429,178.25097 247.17762,181.49556 251.18304,181.49554 L 272.65179,181.49554 C 276.65722,181.49554 279.87052,178.25095 279.87054,174.24554 L 279.87054,152.80804 C 279.87054,148.80261 276.65723,145.58929 272.65179,145.58929 L 251.18304,145.58929 z M 288.83929,145.58929 C 284.83386,145.58929 281.58929,148.80259 281.58929,152.80804 L 281.58929,174.24554 C 281.58929,178.25097 284.83387,181.49556 288.83929,181.49554 L 310.27679,181.49554 C 314.28222,181.49554 317.52681,178.25095 317.52679,174.24554 L 317.52679,152.80804 C 317.52679,148.80261 314.28223,145.58929 310.27679,145.58929 L 288.83929,145.58929 z M 340.40179,145.58929 C 336.39636,145.58929 333.18304,148.80259 333.18304,152.80804 L 333.18304,174.24554 C 333.18304,178.25097 336.39637,181.49556 340.40179,181.49554 L 361.87054,181.49554 C 365.87597,181.49554 369.08927,178.25095 369.08929,174.24554 L 369.08929,152.80804 C 369.08929,148.80261 365.87598,145.58929 361.87054,145.58929 L 340.40179,145.58929 z M 378.05804,145.58929 C 374.05261,145.58929 370.80804,148.80259 370.80804,152.80804 L 370.80804,174.24554 C 370.80804,178.25097 374.05262,181.49556 378.05804,181.49554 L 399.49554,181.49554 C 403.50097,181.49554 406.74556,178.25095 406.74554,174.24554 L 406.74554,152.80804 C 406.74554,148.80261 403.50098,145.58929 399.49554,145.58929 L 378.05804,145.58929 z M 415.68304,145.58929 C 411.67761,145.58929 408.46429,148.80259 408.46429,152.80804 L 408.46429,174.24554 C 408.46429,178.25097 411.67762,181.49556 415.68304,181.49554 L 437.15179,181.49554 C 441.15722,181.49554 444.37056,178.25095 444.37054,174.24554 L 444.37054,152.80804 C 444.37054,148.80261 441.15723,145.58929 437.15179,145.58929 L 415.68304,145.58929 z M 467.27679,145.58929 C 463.27136,145.58929 460.02679,148.80259 460.02679,152.80804 L 460.02679,174.24554 C 460.02679,178.25097 463.27134,181.49556 467.27679,181.49554 L 488.71429,181.49554 C 492.71972,181.49554 495.96431,178.25095 495.96429,174.24554 L 495.96429,152.80804 C 495.96429,148.80261 492.7197,145.58929 488.71429,145.58929 L 467.27679,145.58929 z M 504.90179,145.58929 C 500.89636,145.58929 497.68304,148.80259 497.68304,152.80804 L 497.68304,174.24554 C 497.68304,178.25097 500.89634,181.49556 504.90179,181.49554 L 526.37054,181.49554 C 530.37597,181.49554 533.58931,178.25095 533.58929,174.24554 L 533.58929,152.80804 C 533.58929,148.80261 530.37595,145.58929 526.37054,145.58929 L 504.90179,145.58929 z M 542.55804,145.58929 C 538.55261,145.58929 535.30804,148.80259 535.30804,152.80804 L 535.30804,174.24554 C 535.30804,178.25097 538.55259,181.49556 542.55804,181.49554 L 563.99554,181.49554 C 568.00097,181.49554 571.21431,178.25095 571.21429,174.24554 L 571.21429,152.80804 C 571.21429,148.80261 568.00095,145.58929 563.99554,145.58929 L 542.55804,145.58929 z M 415.68304,183.21429 C 411.67761,183.21429 408.46429,186.42759 408.46429,190.43304 L 408.46429,211.90179 C 408.46429,215.90722 411.67762,219.12056 415.68304,219.12054 L 437.15179,219.12054 C 441.15722,219.12054 444.37056,215.9072 444.37054,211.90179 L 444.37054,190.43304 C 444.37054,186.42761 441.15723,183.21429 437.15179,183.21429 L 415.68304,183.21429 z M 378.05804,220.83929 C 374.05261,220.83929 370.80804,224.08384 370.80804,228.08929 L 370.80804,249.52679 C 370.80804,253.53222 374.05262,256.77681 378.05804,256.77679 L 399.49554,256.77679 C 403.50097,256.77679 406.74556,253.5322 406.74554,249.52679 L 406.74554,228.08929 C 406.74554,224.08386 403.50098,220.83929 399.49554,220.83929 L 378.05804,220.83929 z M 415.68304,220.83929 C 411.67761,220.83929 408.46429,224.08384 408.46429,228.08929 L 408.46429,249.52679 C 408.46429,253.53222 411.67762,256.77681 415.68304,256.77679 L 437.15179,256.77679 C 441.15722,256.77679 444.37056,253.5322 444.37054,249.52679 L 444.37054,228.08929 C 444.37054,224.08386 441.15723,220.83929 437.15179,220.83929 L 415.68304,220.83929 z"
         style="opacity:1;fill:#e6e6e6;fill-opacity:1;fill-rule:nonzero;stroke:none;stroke-width:1;stroke-linecap:butt;stroke-linejoin:miter;marker:none;marker-start:none;marker-mid:none;marker-end:none;stroke-miterlimit:4;stroke-dasharray:none;stroke-dashoffset:0;stroke-opacity:1;visibility:visible;display:inline;overflow:visible;enable-background:accumulate" />
      <path
         id="path3287"
         d="M 42.995536,79.651786 L 42.995536,86.651786 L 42.995536,168.08929 L 56.995536,168.08929 L 56.995536,93.651786 L 102.99554,93.651786 L 102.99554,165.21429 L 116.99554,165.21429 L 116.99554,93.651786 L 165.87054,93.651786 L 165.87054,163.77679 L 179.87054,163.77679 L 179.87054,86.651786 L 179.87054,79.651786 L 172.87054,79.651786 L 116.99554,79.651786 L 109.99554,79.651786 L 102.99554,79.651786 L 49.995536,79.651786 L 42.995536,79.651786 z M 224.27679,79.651786 L 224.27679,93.651786 L 292.99554,93.651786 L 292.99554,156.77679 L 229.87054,156.77679 L 229.87054,120.93304 L 215.87054,120.93304 L 215.87054,163.77679 L 215.87054,170.77679 L 222.87054,170.77679 L 299.99554,170.77679 L 306.99554,170.77679 L 306.99554,163.77679 L 306.99554,86.651786 L 306.99554,79.651786 L 299.99554,79.651786 L 224.27679,79.651786 z M 344.43304,79.651786 L 344.43304,86.651786 L 344.43304,162.37054 L 344.43304,169.37054 L 351.43304,169.37054 L 391.43304,169.37054 L 391.43304,155.37054 L 358.43304,155.37054 L 358.43304,93.651786 L 418.71429,93.651786 L 418.71429,232.49554 L 384.27679,232.49554 L 384.27679,246.49554 L 425.71429,246.49554 L 432.71429,246.49554 L 432.71429,239.49554 L 432.71429,86.651786 L 432.71429,79.651786 L 425.71429,79.651786 L 351.43304,79.651786 L 344.43304,79.651786 z M 469.87054,79.651786 L 469.87054,86.651786 L 469.87054,129.49554 L 483.87054,129.49554 L 483.87054,93.651786 L 546.99554,93.651786 L 546.99554,156.77679 L 478.27679,156.77679 L 478.27679,170.77679 L 553.99554,170.77679 L 560.99554,170.77679 L 560.99554,163.77679 L 560.99554,86.651786 L 560.99554,79.651786 L 553.99554,79.651786 L 476.87054,79.651786 L 469.87054,79.651786 z"
         style="opacity:0.92338712;fill:#000000;fill-opacity:1;fill-rule:evenodd;stroke:none;stroke-width:3;stroke-linecap:butt;stroke-linejoin:miter;stroke-miterlimit:4;stroke-dasharray:none;stroke-opacity:1;filter:url(#filter3349)" />
      <path
         id="path2489"
         d="M 42.995536,79.651786 L 42.995536,86.651786 L 42.995536,168.08929 L 56.995536,168.08929 L 56.995536,93.651786 L 102.99554,93.651786 L 102.99554,165.21429 L 116.99554,165.21429 L 116.99554,93.651786 L 165.87054,93.651786 L 165.87054,163.77679 L 179.87054,163.77679 L 179.87054,86.651786 L 179.87054,79.651786 L 172.87054,79.651786 L 116.99554,79.651786 L 109.99554,79.651786 L 102.99554,79.651786 L 49.995536,79.651786 L 42.995536,79.651786 z M 224.27679,79.651786 L 224.27679,93.651786 L 292.99554,93.651786 L 292.99554,156.77679 L 229.87054,156.77679 L 229.87054,120.93304 L 215.87054,120.93304 L 215.87054,163.77679 L 215.87054,170.77679 L 222.87054,170.77679 L 299.99554,170.77679 L 306.99554,170.77679 L 306.99554,163.77679 L 306.99554,86.651786 L 306.99554,79.651786 L 299.99554,79.651786 L 224.27679,79.651786 z M 344.43304,79.651786 L 344.43304,86.651786 L 344.43304,162.37054 L 344.43304,169.37054 L 351.43304,169.37054 L 391.43304,169.37054 L 391.43304,155.37054 L 358.43304,155.37054 L 358.43304,93.651786 L 418.71429,93.651786 L 418.71429,232.49554 L 384.27679,232.49554 L 384.27679,246.49554 L 425.71429,246.49554 L 432.71429,246.49554 L 432.71429,239.49554 L 432.71429,86.651786 L 432.71429,79.651786 L 425.71429,79.651786 L 351.43304,79.651786 L 344.43304,79.651786 z M 469.87054,79.651786 L 469.87054,86.651786 L 469.87054,129.49554 L 483.87054,129.49554 L 483.87054,93.651786 L 546.99554,93.651786 L 546.99554,156.77679 L 478.27679,156.77679 L 478.27679,170.77679 L 553.99554,170.77679 L 560.99554,170.77679 L 560.99554,163.77679 L 560.99554,86.651786 L 560.99554,79.651786 L 553.99554,79.651786 L 476.87054,79.651786 L 469.87054,79.651786 z"
         style="fill:#000000;fill-opacity:1;fill-rule:evenodd;stroke:#ffffff;stroke-width:3;stroke-linecap:butt;stroke-linejoin:miter;stroke-miterlimit:4;stroke-dasharray:none;stroke-opacity:1" />
    </g>
  </g>
</svg>
